<?xml version="1.0" encoding="utf-8"?>
<!-- Generator: Adobe Illustrator 18.1.1, SVG Export Plug-In . SVG Version: 6.00 Build 0)  -->
<svg version="1.1" id="Capa_1" xmlns="http://www.w3.org/2000/svg" xmlns:xlink="http://www.w3.org/1999/xlink" x="0px" y="0px"
	 viewBox="0 0 661.2 113.9" enable-background="new 0 0 661.2 113.9" xml:space="preserve">
<g>
	<g>
		<g>
			<polygon fill="#FFFFFF" points="2.5,9.6 0,29.3 19.3,40.3 32.9,31.7 66.4,52.3 59.1,87.1 92.3,107.8 115.8,88.8 118.1,56.7 
				86.5,43.8 89,13.8 59.2,0 38.7,18.9 19.7,2.2 			"/>
		</g>
		<g>
			<g>
				<polygon fill="#EA741B" points="17.6,35.1 5,27.9 5,13.4 17.6,20.7 				"/>
				<path fill="#FFFFFF" d="M5.6,14.5L17,21v13L5.6,27.5V14.5 M5,13.4v14.4l12.6,7.2V20.7L5,13.4L5,13.4z"/>
			</g>
			<g>
				<polygon fill="#EA741B" points="17.6,20.7 5,13.4 17.5,6.2 30,13.5 				"/>
				<path fill="#FFFFFF" d="M17.5,6.9l11.3,6.5L17.6,20L6.2,13.4L17.5,6.9 M17.5,6.2L5,13.4l12.6,7.2L30,13.5L17.5,6.2L17.5,6.2z"/>
			</g>
			<g>
				<polygon fill="#EA741B" points="30.1,27.9 17.6,35.1 17.6,20.7 30.1,13.4 				"/>
				<path fill="#FFFFFF" d="M29.5,14.5v13L18.2,34V21L29.5,14.5 M30.1,13.4l-12.6,7.2v14.4l12.6-7.2V13.4L30.1,13.4z"/>
			</g>
		</g>
		<path fill="#545454" d="M56,30.8c-0.1,0-0.1,0-0.2,0l-32.1-4.6c-0.8-0.1-1.4-0.9-1.3-1.7c0.1-0.8,0.9-1.4,1.7-1.3l32.1,4.6
			c0.8,0.1,1.4,0.9,1.3,1.7C57.3,30.2,56.7,30.8,56,30.8z"/>
		<g>
			<g>
				<polygon fill="#38B2FF" points="65.1,45.8 48.4,36.1 48.4,16.9 65.1,26.6 				"/>
				<path fill="#FFFFFF" d="M49,18l15.5,9v17.8l-15.5-9V18 M48.4,16.9v19.2l16.7,9.7V26.6L48.4,16.9L48.4,16.9z"/>
			</g>
			<g>
				<polygon fill="#38B2FF" points="65.1,26.6 48.4,16.9 65,7.3 81.7,17 				"/>
				<path fill="#FFFFFF" d="M65,8l15.5,9l-15.4,8.9l-15.5-9L65,8 M65,7.3l-16.6,9.6l16.7,9.7L81.7,17L65,7.3L65,7.3z"/>
			</g>
			<g>
				<polygon fill="#38B2FF" points="81.8,36.1 65.1,45.8 65.1,26.6 81.8,16.9 				"/>
				<path fill="#FFFFFF" d="M81.2,18v17.8l-15.5,9V26.9L81.2,18 M81.8,16.9l-16.7,9.7v19.2l16.7-9.7V16.9L81.8,16.9z"/>
			</g>
		</g>
		<path fill="#545454" d="M83.8,72.2c-0.7,0-1.3-0.4-1.5-1.1L72,32.1c-0.2-0.8,0.3-1.6,1.1-1.9c0.8-0.2,1.6,0.3,1.9,1.1l10.3,39
			c0.2,0.8-0.3,1.6-1.1,1.9C84,72.2,83.9,72.2,83.8,72.2z"/>
		<g>
			<polygon fill="#38B27E" points="89,97.4 68.1,85.3 68.1,61.3 89,73.4 			"/>
			<path fill="#FFFFFF" d="M68.7,62.3l19.7,11.4v22.6L68.7,84.9V62.3 M68.1,61.3v24L89,97.4v-24L68.1,61.3L68.1,61.3z"/>
		</g>
		<g>
			<polygon fill="#38B27E" points="89,73.4 68.1,61.3 88.9,49.3 109.8,61.4 			"/>
			<path fill="#FFFFFF" d="M88.9,50l19.7,11.4L89,72.7L69.3,61.3L88.9,50 M88.9,49.3l-20.8,12L89,73.4l20.8-12L88.9,49.3L88.9,49.3z
				"/>
		</g>
		<g>
			<polygon fill="#38B27E" points="110,85.3 89,97.4 89,73.4 110,61.3 			"/>
			<path fill="#FFFFFF" d="M109.4,62.3v22.6L89.6,96.3V73.7L109.4,62.3 M110,61.3L89,73.4v24L110,85.3V61.3L110,61.3z"/>
		</g>
	</g>
	<path fill="#FFFFFF" d="M143.7,82.4c-3.1-5.1-4.9-10.1-5.5-15.1c0-35.5,0-53.2,0-53.1h7.2v31.3c3-3.7,6.4-6.5,10.2-8.3
		c3.8-1.8,7.9-2.7,12.3-2.7c7.9,0,14.7,2.9,20.3,8.6c5.6,5.8,8.4,12.7,8.4,21c0,8.1-2.8,15-8.5,20.7c-5.7,5.7-12.5,8.6-20.5,8.6
		c-4.6,0-8.9-0.9-12.9-2.6C150.7,89,147,86.2,143.7,82.4z M167,86.5c4.1,0,7.8-1,11.2-3c3.4-2,6.1-4.8,8.1-8.3c2-3.5,3-7.3,3-11.4
		c0-4-1-7.7-3-11.4s-4.8-6.4-8.2-8.4c-3.4-2-7.1-3-11-3c-4,0-7.7,1-11.2,3s-6.3,4.7-8.2,8.1c-1.9,3.4-2.9,7.3-2.9,11.5
		c0,6.5,2.1,12,6.4,16.3C155.5,84.3,160.8,86.5,167,86.5z"/>
	<path fill="#FFFFFF" d="M211.5,14.2c1.6,0,3,0.6,4.2,1.7s1.8,2.6,1.8,4.2c0,1.6-0.6,3-1.8,4.2c-1.2,1.2-2.6,1.8-4.2,1.8
		s-3-0.6-4.2-1.8c-1.2-1.2-1.7-2.6-1.7-4.2c0-1.6,0.6-3,1.7-4.2S209.9,14.2,211.5,14.2z M207.9,37.2h7.2v56.1h-7.2V37.2z"/>
	<path fill="#FFFFFF" d="M254.5,91.4c-3.8,1.4-7.1,2.1-10,2c-5.5-0.3-9.9-3.2-13.1-8.6c-2.1-3.6-3.1-7.4-2.8-11.2V15.3h7.3v27.1
		h13.3v6.2h-13.3v23.7c0.9,7.4,2.9,11.9,5.9,13.6c3.4,1.6,6.9,1.5,10.4-0.5C253.2,88,254,90,254.5,91.4z"/>
	<path fill="#FFFFFF" d="M268.2,53.5h18.3v6.3h-18.3V53.5z"/>
	<path fill="#FFFFFF" d="M309,14.2c1.6,0,3,0.6,4.2,1.7s1.8,2.6,1.8,4.2c0,1.6-0.6,3-1.8,4.2c-1.2,1.2-2.6,1.8-4.2,1.8
		s-3-0.6-4.2-1.8c-1.2-1.2-1.7-2.6-1.7-4.2c0-1.6,0.6-3,1.7-4.2S307.4,14.2,309,14.2z M305.4,37.2h7.2v56.1h-7.2V37.2z"/>
	<path fill="#FFFFFF" d="M327.5,71.6v-9c0.6-7.6,2.2-13.2,4.8-16.8c2.1-3.2,5-5.8,8.4-7.7c3.6-2.2,8-3,13.1-2.4
		c2.7,0,5.1,0.5,7.3,1.6s4.1,2.5,5.6,4.1c1.5,1.7,2.9,4.2,4,7.5c1.5-4.3,4-7.6,7.6-9.8c3.6-2.2,8.2-3.4,13.8-3.5
		c3.9,0,7.3,1,10.3,2.9s5.2,4.7,6.6,8.2c1.4,3.5,2.2,8.8,2.2,15.8v30.6H404V62.7c0-6-0.4-10.1-1.3-12.4s-2.3-4.1-4.4-5.4
		c-2.1-1.4-4.6-2.1-7.5-2.1c-5.5,0.4-9.9,3.1-13.2,8c-1.5,2.1-2.7,6.8-3.5,14.1v28.4h-7.2V64.6c0-6.8-0.8-11.3-2.3-13.8
		c-1.5-2.4-3.3-4.4-5.4-5.8c-2.1-1.4-4.3-2.2-6.7-2.2c-3.3,0-6.5,0.9-9.6,2.6c-3.1,1.7-5.3,4.3-6.6,7.6c-1.4,3.4-1.9,8.9-1.6,16.5
		v23.8h-7.2V71.6z"/>
	<path fill="#FFFFFF" d="M442.1,37.3c4-1.8,8.3-2.6,12.9-2.6c8,0,14.8,2.9,20.5,8.6c5.7,5.7,8.5,12.6,8.5,20.7
		c0,8.2-2.8,15.2-8.4,21c-5.6,5.8-12.4,8.6-20.3,8.6c-4.5,0-8.6-0.9-12.3-2.7c-3.8-1.8-7.1-4.6-10.2-8.3v31.3h-7.2
		c0,0.1,0-17.6,0-53.1c0.6-4.9,2.5-10,5.5-15.1C434.4,41.8,438.1,39.1,442.1,37.3z M438.6,48.1c-4.3,4.4-6.4,9.8-6.4,16.3
		c0,4.2,1,8.1,2.9,11.5c1.9,3.4,4.6,6.1,8.2,8.1s7.3,3,11.2,3c3.9,0,7.5-1,11-3c3.4-2,6.2-4.8,8.2-8.4s3-7.4,3-11.4
		c0-4-1-7.8-3-11.4c-2-3.5-4.7-6.3-8.1-8.3c-3.4-2-7.1-3-11.2-3C448.1,41.6,442.9,43.8,438.6,48.1z"/>
	<path fill="#FFFFFF" d="M524.8,34.5c8.6,0,15.8,3.1,21.5,9.4c5.1,5.7,7.7,12.5,7.7,20.3s-2.7,14.6-8.2,20.5s-12.5,8.8-21,8.8
		c-8.6,0-15.6-2.9-21-8.8c-5.4-5.8-8.2-12.7-8.2-20.5c0-7.8,2.6-14.5,7.7-20.3C509,37.6,516.2,34.5,524.8,34.5z M524.8,41.5
		c-6,0-11.1,2.2-15.4,6.6c-4.3,4.4-6.4,9.8-6.4,16.1c0,4.1,1,7.9,2.9,11.4s4.6,6.2,8,8.1c3.3,1.9,7,2.8,10.9,2.8c4,0,7.7-0.9,11-2.8
		c3.3-1.9,6-4.6,7.9-8.1s2.9-7.3,2.9-11.4c0-6.3-2.1-11.6-6.4-16.1C535.9,43.8,530.8,41.5,524.8,41.5z"/>
	<path fill="#FFFFFF" d="M564.6,67.7v-6.8c0.5-3.4,1.3-6.1,2.4-8.2c2.4-5.9,5.6-10.2,9.6-12.9s7.4-4.1,10-4.1c2,0,4.1,0.6,6.3,1.9
		l-3.7,6c-3.2-1.2-6.3-0.2-9.4,2.8s-5.3,6.3-6.5,9.9c-0.9,3.2-1.3,9.1-1.3,17.8v19h-7.4V67.7z"/>
	<path fill="#FFFFFF" d="M621.5,91.4c-3.8,1.4-7.1,2.1-10,2c-5.5-0.3-9.9-3.2-13.1-8.6c-2.1-3.6-3.1-7.4-2.8-11.2V15.3h7.3v27.1
		h13.3v6.2h-13.3v23.7c0.9,7.4,2.9,11.9,5.9,13.6c3.4,1.6,6.9,1.5,10.4-0.5C620.2,88,620.9,90,621.5,91.4z"/>
	<path fill="#FFFFFF" d="M661.2,42.1l-4.6,4.8c-3.9-3.8-7.7-5.6-11.3-5.6c-2.4,0-4.4,0.8-6,2.3s-2.5,3.4-2.5,5.5
		c0,1.8,0.7,3.5,2.1,5.1c1.4,1.7,4.2,3.7,8.6,6c5.4,2.8,9,5.4,10.9,8c1.9,2.6,2.8,5.6,2.8,8.8c0,4.6-1.6,8.4-4.8,11.6
		c-3.2,3.2-7.3,4.8-12.1,4.8c-3.2,0-6.3-0.7-9.3-2.1c-2.9-1.4-5.4-3.3-7.3-5.8l4.6-5.2c3.7,4.2,7.6,6.2,11.7,6.2
		c2.9,0,5.3-0.9,7.3-2.8s3-4,3-6.5c0-2.1-0.7-3.9-2-5.5c-1.3-1.6-4.3-3.6-9.1-6c-5.1-2.6-8.5-5.1-10.3-7.7c-1.8-2.5-2.8-5.4-2.8-8.7
		c0-4.3,1.5-7.8,4.4-10.6s6.6-4.2,11-4.2C650.7,34.5,655.9,37,661.2,42.1z"/>
</g>
</svg>
