<?xml version="1.0" encoding="utf-8"?>
<!-- Generator: Adobe Illustrator 18.1.1, SVG Export Plug-In . SVG Version: 6.00 Build 0)  -->
<svg version="1.1" id="Layer_1" xmlns="http://www.w3.org/2000/svg" xmlns:xlink="http://www.w3.org/1999/xlink" x="0px" y="0px"
	 viewBox="0 0 405 405" enable-background="new 0 0 405 405" xml:space="preserve">
<path fill-rule="evenodd" clip-rule="evenodd" fill="#FFFFFF" d="M202.5,69.2c-75.5,0-136.7,61.2-136.7,136.7
	c0,60.4,39.2,111.6,93.5,129.7c6.8,1.3,9.3-3,9.3-6.6c0-3.2-0.1-11.8-0.2-23.2c-38,8.3-46-18.3-46-18.3c-6.2-15.8-15.2-20-15.2-20
	c-12.4-8.5,0.9-8.3,0.9-8.3c13.7,1,20.9,14.1,20.9,14.1c12.2,20.9,32,14.9,39.8,11.4c1.2-8.8,4.8-14.9,8.7-18.3
	c-30.4-3.4-62.3-15.2-62.3-67.6c0-14.9,5.3-27.1,14.1-36.7c-1.4-3.5-6.1-17.4,1.3-36.2c0,0,11.5-3.7,37.6,14
	c10.9-3,22.6-4.5,34.2-4.6c11.6,0.1,23.3,1.6,34.2,4.6c26.1-17.7,37.6-14,37.6-14c7.5,18.8,2.8,32.7,1.4,36.2
	c8.8,9.6,14.1,21.8,14.1,36.7c0,52.5-32,64.1-62.4,67.5c4.9,4.2,9.3,12.6,9.3,25.3c0,18.3-0.2,33-0.2,37.5c0,3.7,2.5,7.9,9.4,6.6
	c54.3-18.1,93.4-69.3,93.4-129.7C339.2,130.4,278,69.2,202.5,69.2z"/>
</svg>
