<?xml version="1.0" encoding="utf-8"?>
<!-- Generator: Adobe Illustrator 19.0.0, SVG Export Plug-In . SVG Version: 6.00 Build 0)  -->
<svg version="1.1" id="Layer_1" xmlns="http://www.w3.org/2000/svg" xmlns:xlink="http://www.w3.org/1999/xlink" x="0px" y="0px"
	 viewBox="-277 78 405 405" style="enable-background:new -277 78 405 405;" xml:space="preserve">
<style type="text/css">
	.st0{fill:#FFFFFF;}
	.st1{fill:#E5E5E5;}
</style>
<path id="XMLID_18_" class="st0" d="M107.5,307.7c0-58.7-65.1-106.3-145.5-106.3c-80.3,0-145.5,47.6-145.5,106.3
	s65.1,106.3,145.5,106.3c28.7,0,55.5-6.1,78.1-16.6l31.8,14.9L70,378.9C93.3,360.1,107.5,335.1,107.5,307.7z M-98,244h79v14h-79V244
	z M-19,362h-110v-16h110V362z M43,325H-98v-16H43V325z M43,291H-98v-15H43V291z"/>
<path id="XMLID_12_" class="st1" d="M-110.5,147.2c-80.3,0-145.5,47.6-145.5,106.3c0,20.6,8,39.8,21.9,56.1l-6.5,29.6l30-8.6
	c7.4,5.1,15.5,9.7,24.2,13.6c-5.9-12-9.1-25-9.1-38.5c0-63.5,70.5-115,157.4-115c17.7,0,34.6,2.1,50.5,6
	C-13.2,166.9-58.7,147.2-110.5,147.2z"/>
</svg>
