<?xml version="1.0" encoding="utf-8"?>
<!-- Generator: Adobe Illustrator 19.0.0, SVG Export Plug-In . SVG Version: 6.00 Build 0)  -->
<svg version="1.1" id="Capa_1" xmlns="http://www.w3.org/2000/svg" xmlns:xlink="http://www.w3.org/1999/xlink" x="0px" y="0px"
	 viewBox="0 0 512 512" enable-background="new 0 0 512 512" xml:space="preserve">
<g id="XMLID_57_">
	<g id="XMLID_27_">
		<polygon id="XMLID_54_" fill="#994A14" points="127.4,41.4 0,114.2 0,259.8 128,333 256,259.8 256,114.2 		"/>
		<g id="XMLID_38_">
			<polygon id="XMLID_44_" fill="#EA741B" points="128.3,313.5 18.4,250 18.4,124 128.3,187.4 			"/>
			<polygon id="XMLID_43_" fill="#CE6219" points="128.3,187.4 18.4,124 127.6,60.9 238.1,124 			"/>
			<polygon id="XMLID_42_" fill="#B55616" points="238.1,250 128.3,313.5 128.3,187.4 238.1,124 			"/>
		</g>
	</g>
	<g id="XMLID_28_">
		<polygon id="XMLID_55_" fill="#6693B2" points="383.2,41.4 256,114.2 256,259.8 384,333 512,259.8 512,114.2 		"/>
		<g id="XMLID_39_">
			<polygon id="XMLID_48_" fill="#8EC6FF" points="384.1,313.5 274.2,250 274.2,124 384.1,187.4 			"/>
			<polygon id="XMLID_46_" fill="#80B7E5" points="384.1,187.4 274.2,124 383.4,60.9 493.9,124 			"/>
			<polygon id="XMLID_45_" fill="#72A3CC" points="493.9,250 384.1,313.5 384.1,187.4 493.9,124 			"/>
		</g>
	</g>
	<g id="XMLID_20_">
		<polygon id="XMLID_66_" fill="#206042" points="256.9,177.7 130,250.5 130,396.1 257.2,470 257.3,470 386,396.1 386,250.5 		"/>
		<g id="XMLID_37_">
			<polygon id="XMLID_41_" fill="#38B27E" points="257.3,449.8 147.4,386.4 147.4,260.3 257.3,323.7 			"/>
			<polygon id="XMLID_36_" fill="#309668" points="257.3,323.7 147.4,260.3 256.6,197.3 367.2,260.3 			"/>
			<polygon id="XMLID_40_" fill="#287C56" points="367.2,386.4 257.3,449.8 257.3,323.7 367.2,260.3 			"/>
		</g>
	</g>
</g>
</svg>
