<?xml version="1.0" encoding="utf-8"?>
<!-- Generator: Adobe Illustrator 19.0.0, SVG Export Plug-In . SVG Version: 6.00 Build 0)  -->
<svg version="1.1" id="Capa_1" xmlns="http://www.w3.org/2000/svg" xmlns:xlink="http://www.w3.org/1999/xlink" x="0px" y="0px"
	 viewBox="0 0 512 512" style="enable-background:new 0 0 512 512;" xml:space="preserve">
<style type="text/css">
	.st0{fill:#DBDBDB;}
	.st1{fill:#4C4C4C;}
	.st2{fill:#EA741B;}
	.st3{fill:#38B27E;}
	.st4{fill:#8EC6FF;}
	.st5{opacity:0.5;fill:#38B27E;enable-background:new    ;}
	.st6{fill:none;stroke:#D3D3D3;stroke-width:9;stroke-miterlimit:10;}
</style>
<g id="XMLID_2_">
	<rect id="XMLID_33_" x="2" y="92.8" class="st0" width="508" height="42.5"/>
	<path id="XMLID_28_" class="st1" d="M508,94.8v38.5H4V94.8H508 M512,90.8H0v46.5h512V90.8L512,90.8z"/>
</g>
<path id="XMLID_30_" class="st1" d="M504,98.8v314.4H8V98.8H504 M512,90.8H0v330.4h512V90.8L512,90.8z"/>
<rect id="XMLID_3_" x="20" y="107.1" class="st2" width="20" height="20"/>
<rect id="XMLID_5_" x="46.7" y="107.1" class="st3" width="20" height="20"/>
<rect id="XMLID_6_" x="73.3" y="107.1" class="st4" width="20" height="20"/>
<rect id="XMLID_4_" x="36" y="172.8" class="st5" width="211.9" height="120.7"/>
<line id="XMLID_7_" class="st6" x1="277" y1="176.5" x2="476" y2="176.5"/>
<line id="XMLID_9_" class="st6" x1="277" y1="205.5" x2="476" y2="205.5"/>
<line id="XMLID_11_" class="st6" x1="277" y1="234.5" x2="476" y2="234.5"/>
<line id="XMLID_12_" class="st6" x1="277" y1="263.5" x2="476" y2="263.5"/>
<line id="XMLID_13_" class="st6" x1="277" y1="292.5" x2="476" y2="292.5"/>
<line id="XMLID_18_" class="st6" x1="36" y1="321.5" x2="476" y2="321.5"/>
<line id="XMLID_8_" class="st6" x1="36" y1="350.5" x2="476" y2="350.5"/>
<line id="XMLID_20_" class="st6" x1="36" y1="379.5" x2="476" y2="379.5"/>
</svg>
